<?xml version="1.0" encoding="UTF-8" standalone="no"?>
<!-- Created with Inkscape (http://www.inkscape.org/) -->

<svg
   xmlns:dc="http://purl.org/dc/elements/1.1/"
   xmlns:cc="http://creativecommons.org/ns#"
   xmlns:rdf="http://www.w3.org/1999/02/22-rdf-syntax-ns#"
   xmlns:svg="http://www.w3.org/2000/svg"
   xmlns="http://www.w3.org/2000/svg"
   xmlns:sodipodi="http://sodipodi.sourceforge.net/DTD/sodipodi-0.dtd"
   xmlns:inkscape="http://www.inkscape.org/namespaces/inkscape"
   width="283.46457"
   height="70.866142"
   id="svg2"
   version="1.1"
   inkscape:version="0.48.4 r9939"
   sodipodi:docname="card_info.svg"
   inkscape:export-filename="/home/prithvi/KiCadProjects/Card/card_info.png"
   inkscape:export-xdpi="2000.0179"
   inkscape:export-ydpi="2000.0179">
  <defs
     id="defs4">
    <marker
       inkscape:stockid="StopM"
       orient="auto"
       refY="0.0"
       refX="0.0"
       id="StopM"
       style="overflow:visible">
      <path
         id="path3945"
         d="M 0.0,5.65 L 0.0,-5.65"
         style="fill:none;fill-opacity:0.75000000;fill-rule:evenodd;stroke:#000000;stroke-width:1.0pt"
         transform="scale(0.4)" />
    </marker>
    <marker
       inkscape:stockid="StopM"
       orient="auto"
       refY="0"
       refX="0"
       id="StopM-5"
       style="overflow:visible">
      <path
         inkscape:connector-curvature="0"
         id="path3945-9"
         d="M 0,5.65 0,-5.65"
         style="fill:none;stroke:#000000;stroke-width:1pt"
         transform="scale(0.4,0.4)" />
    </marker>
    <marker
       inkscape:stockid="StopM"
       orient="auto"
       refY="0"
       refX="0"
       id="marker4648"
       style="overflow:visible">
      <path
         inkscape:connector-curvature="0"
         id="path4650"
         d="M 0,5.65 0,-5.65"
         style="fill:none;stroke:#000000;stroke-width:1pt"
         transform="scale(0.4,0.4)" />
    </marker>
    <marker
       inkscape:stockid="StopM"
       orient="auto"
       refY="0"
       refX="0"
       id="StopM-8"
       style="overflow:visible">
      <path
         inkscape:connector-curvature="0"
         id="path3945-5"
         d="M 0,5.65 0,-5.65"
         style="fill:none;stroke:#000000;stroke-width:1pt"
         transform="scale(0.4,0.4)" />
    </marker>
    <marker
       inkscape:stockid="StopM"
       orient="auto"
       refY="0"
       refX="0"
       id="marker5038"
       style="overflow:visible">
      <path
         inkscape:connector-curvature="0"
         id="path5040"
         d="M 0,5.65 0,-5.65"
         style="fill:none;stroke:#000000;stroke-width:1pt"
         transform="scale(0.4,0.4)" />
    </marker>
  </defs>
  <sodipodi:namedview
     id="base"
     pagecolor="#ffffff"
     bordercolor="#666666"
     borderopacity="1.0"
     inkscape:pageopacity="0.0"
     inkscape:pageshadow="2"
     inkscape:zoom="4"
     inkscape:cx="157.66428"
     inkscape:cy="61.404691"
     inkscape:document-units="px"
     inkscape:current-layer="layer1"
     showgrid="true"
     units="mm"
     inkscape:window-width="1918"
     inkscape:window-height="1148"
     inkscape:window-x="0"
     inkscape:window-y="0"
     inkscape:window-maximized="0">
    <inkscape:grid
       type="xygrid"
       id="grid2985"
       empspacing="5"
       visible="true"
       enabled="true"
       snapvisiblegridlinesonly="true"
       units="mm"
       spacingx="0.5mm"
       spacingy="0.5mm" />
  </sodipodi:namedview>
  <metadata
     id="metadata7">
    <rdf:RDF>
      <cc:Work
         rdf:about="">
        <dc:format>image/svg+xml</dc:format>
        <dc:type
           rdf:resource="http://purl.org/dc/dcmitype/StillImage" />
        <dc:title></dc:title>
      </cc:Work>
    </rdf:RDF>
  </metadata>
  <g
     inkscape:label="Layer 1"
     inkscape:groupmode="layer"
     id="layer1"
     transform="translate(0,-981.49605)">
    <text
       xml:space="preserve"
       style="font-size:10.9999752px;font-style:normal;font-variant:normal;font-weight:normal;font-stretch:normal;line-height:125%;letter-spacing:0px;word-spacing:0px;fill:#000000;fill-opacity:1;stroke:none;font-family:Volkhov;-inkscape-font-specification:Volkhov"
       x="15.944844"
       y="1001.558"
       id="text2991"
       sodipodi:linespacing="125%"
       transform="scale(1.0000026,0.9999974)"><tspan
         sodipodi:role="line"
         id="tspan2993"
         x="15.944844"
         y="1001.558"
         style="font-size:19.99995422px;font-style:normal;font-variant:normal;font-weight:normal;font-stretch:normal;font-family:ISOCPEUR;-inkscape-font-specification:ISOCPEUR">PrithviRajNarendra</tspan></text>
    <text
       xml:space="preserve"
       style="font-size:10.9999752px;font-style:normal;font-variant:normal;font-weight:normal;font-stretch:normal;line-height:125%;letter-spacing:0px;word-spacing:0px;fill:#000000;fill-opacity:1;stroke:none;font-family:Volkhov;-inkscape-font-specification:Volkhov"
       x="15.944844"
       y="1035.22"
       id="text2995"
       sodipodi:linespacing="125%"
       transform="scale(1.0000026,0.9999974)"><tspan
         sodipodi:role="line"
         id="tspan2997"
         x="15.944844"
         y="1035.22"
         style="font-size:19.99995422px;font-style:normal;font-variant:normal;font-weight:normal;font-stretch:normal;font-family:ISOCPEUR;-inkscape-font-specification:ISOCPEUR">p@earthlord.io</tspan></text>
    <path
       style="fill:none;stroke:#000000;stroke-width:1;stroke-linecap:butt;stroke-linejoin:miter;stroke-miterlimit:4;stroke-opacity:1;stroke-dasharray:none;marker-start:url(#StopM);marker-mid:none;marker-end:url(#StopM)"
       d="m 17.716535,1006.8708 118.700785,0 0,0"
       id="path2999"
       inkscape:connector-curvature="0" />
    <path
       id="path4627"
       d="m 8.0550461,1006.6936 q 0,-0.7574 0.2951738,-1.4487 0.2951752,-0.6913 0.7942532,-1.1904 0.4990764,-0.4991 1.1904049,-0.7942 0.691329,-0.2952 1.448684,-0.2952 0.757356,0 1.448686,0.2952 0.691329,0.2951 1.190407,0.7942 0.499077,0.4991 0.79425,1.1904 0.295176,0.6913 0.295176,1.4487 0,0.7573 -0.295176,1.4487 -0.295173,0.6913 -0.79425,1.1904 -0.499078,0.4991 -1.190407,0.7942 -0.69133,0.2952 -1.448686,0.2952 -0.757355,0 -1.448684,-0.2952 -0.6913285,-0.2951 -1.1904049,-0.7942 -0.499078,-0.4991 -0.7942532,-1.1904 -0.2951738,-0.6914 -0.2951738,-1.4487 z m 1.5108259,1.5846 q 0,0.039 0.03495,0.063 0.050494,0.039 0.2136125,0.1244 0.5786985,0.2951 1.2156535,0.2951 0.800078,0 1.444799,-0.4077 0.310711,-0.1982 0.551511,-0.4759 0.240799,-0.2777 0.38256,-0.5787 0.141763,-0.3009 0.211672,-0.6038 0.06991,-0.3031 0.06603,-0.5865 v -0.086 q 0.279639,-0.202 0.434994,-0.4622 0.01553,-0.024 0.01553,-0.042 0,-0.031 -0.02524,-0.057 -0.02525,-0.025 -0.05632,-0.025 l -0.05826,0.019 q -0.15147,0.063 -0.174774,0.066 0.06602,-0.078 0.130109,-0.1941 0.06409,-0.1165 0.06409,-0.1709 0,-0.027 -0.02524,-0.05 -0.02525,-0.024 -0.05632,-0.024 -0.01554,0 -0.03884,0.011 -0.287406,0.1554 -0.508787,0.2059 -0.287408,-0.2797 -0.691328,-0.2797 -0.407808,0 -0.695213,0.2875 -0.287408,0.2875 -0.287408,0.6952 0,0.05 0.0078,0.1204 -0.831149,-0.078 -1.440917,-0.6292 -0.108744,-0.1051 -0.271872,-0.2796 -0.027183,-0.031 -0.066028,-0.031 -0.042716,0 -0.058261,0.039 -0.1398183,0.1942 -0.1398183,0.4972 0,0.3495 0.229148,0.6214 -0.00777,0 -0.077678,-0.031 -0.054366,-0.027 -0.081561,-0.027 -0.038844,0 -0.066027,0.024 -0.027183,0.024 -0.027183,0.063 0,0.2563 0.1281685,0.4797 0.1281672,0.2233 0.3456644,0.3592 h -0.01165 q -0.0078,-0.012 -0.01942,-0.012 -0.01165,-0.011 -0.03107,-0.011 -0.03107,0 -0.05437,0.022 -0.0233,0.022 -0.0233,0.053 0,0.011 0.0078,0.027 0.07768,0.2447 0.266046,0.4195 0.188368,0.1747 0.440818,0.2369 -0.411689,0.2564 -0.9127086,0.2564 -0.01165,0 -0.1126272,-0.011 -0.027195,0 -0.062144,0 -0.034961,0 -0.042716,0 -0.027195,0 -0.050494,0.025 -0.0233,0.025 -0.0233,0.057 z"
       inkscape:connector-curvature="0" />
    <path
       style="fill:none;stroke:#000000;stroke-width:1;stroke-linecap:butt;stroke-linejoin:miter;stroke-miterlimit:4;stroke-opacity:1;stroke-dasharray:none;marker-start:url(#StopM);marker-mid:none;marker-end:url(#StopM)"
       d="m 17.747293,1012.2071 143.205017,0 0,0"
       id="path2999-5"
       inkscape:connector-curvature="0" />
    <path
       id="path4758"
       style="fill:#010101;fill-rule:evenodd"
       d="m 188.09252,1014.0571 v -1.6562 c 0,-0.8873 -0.47372,-1.3002 -1.10524,-1.3002 -0.50962,0 -0.738,0.2804 -0.86526,0.4771 v -0.4092 h -0.96015 c 0.0127,0.271 0,2.8885 0,2.8885 h 0.96015 v -1.6132 c 0,-0.087 0.007,-0.1724 0.0317,-0.234 0.0693,-0.1725 0.22724,-0.3511 0.49237,-0.3511 0.34758,0 0.48644,0.2649 0.48644,0.653 v 1.5455 h 0.96002 z m -3.94214,-3.2828 c 0.33471,0 0.54329,-0.222 0.54329,-0.4993 -0.007,-0.2833 -0.20858,-0.4988 -0.53692,-0.4988 -0.32834,0 -0.54314,0.2154 -0.54314,0.4988 0,0.2773 0.20844,0.4993 0.5307,0.4993 h 0.007 z m 1.56128,5.5259 c -2.34282,0 -4.24219,-1.8994 -4.24219,-4.2422 0,-2.3429 1.89937,-4.2422 4.24219,-4.2422 2.34281,0 4.24219,1.8993 4.24219,4.2422 0,2.3428 -1.89938,4.2422 -4.24219,4.2422 z m -1.0812,-2.2431 v -2.8885 h -0.96 v 2.8885 h 0.96 z"
       inkscape:connector-curvature="0" />
    <path
       id="path4836"
       d="m 162.0438,1015.7704 0,-7.0678 1.45765,0 0.0709,0.063 6.50034,0 0.0709,-0.063 1.37098,0 0,7.0914 -1.34735,0 0,-0.056 -6.73673,0 0,0.031 -1.38674,0 z m 1.38674,-1.0401 0,0.6303 6.73672,0 0,-0.583 -2.71832,-2.0407 -0.62246,0.5121 -0.67761,-0.5514 z m 0,-0.4728 2.41891,-1.8043 -2.41891,-1.9855 0,3.7898 z m 0.65398,-5.0505 2.74196,2.348 2.73408,-2.348 -5.47604,0 z m 3.66382,3.2855 2.41892,1.8123 0,-3.8135 z"
       inkscape:connector-curvature="0"
       style="fill:#000000" />
    <path
       id="path4895"
       d="m 174.16296,1008.511 c -0.75032,0 -1.35446,0.6041 -1.35446,1.3543 l 0,4.7089 c 0,0.7504 0.60414,1.3545 1.35446,1.3545 l 2.55219,0 0,-2.8999 -0.76682,0 0,-1.0438 0.76682,0 0,-0.8922 c 0,-0.7008 0.45308,-1.3443 1.49679,-1.3443 0.42256,0 0.73505,0.042 0.73505,0.042 l -0.0245,0.975 c 0,0 -0.3187,0 -0.66646,0 -0.37638,0 -0.43673,0.1733 -0.43673,0.4613 l 0,0.7623 1.13309,0 -0.0495,1.0442 -1.08369,0 0,2.8999 1.05263,0 c 0.75032,0 1.35446,-0.6042 1.35446,-1.3545 l 0,-4.709 c 0,-0.7501 -0.60414,-1.3543 -1.35446,-1.3543 l -4.70893,0 z"
       inkscape:connector-curvature="0"
       style="fill:#000000" />
    <path
       id="path4958"
       d="m 198.98878,1012.5111 c 0.0316,-0.1991 0.048,-0.4027 0.048,-0.6106 0,-2.1607 -1.75136,-3.912 -3.91204,-3.912 -0.20732,0 -0.41156,0.018 -0.61047,0.048 -0.36031,-0.2229 -0.78555,-0.3518 -1.24124,-0.3518 -1.30561,0 -2.36398,1.0583 -2.36398,2.364 0,0.4555 0.1291,0.8805 0.35189,1.2414 -0.0308,0.1994 -0.0478,0.4025 -0.0478,0.6104 0,2.1606 1.75136,3.9115 3.91148,3.9115 0.20752,0 0.41175,-0.016 0.61064,-0.048 0.3607,0.2225 0.78555,0.3518 1.24125,0.3518 1.30589,0 2.36417,-1.0586 2.36417,-2.3642 1.1e-4,-0.4558 -0.12891,-0.8807 -0.35198,-1.2413 z m -2.00665,1.1685 c -0.16554,0.2381 -0.40857,0.4244 -0.72627,0.5583 -0.31834,0.1342 -0.69448,0.201 -1.1289,0.201 -0.52072,0 -0.95186,-0.091 -1.29212,-0.2752 -0.24123,-0.1316 -0.43742,-0.3083 -0.58826,-0.5289 -0.15111,-0.2204 -0.22774,-0.4364 -0.22774,-0.6471 0,-0.1242 0.0474,-0.2323 0.13959,-0.3204 0.0932,-0.089 0.21323,-0.1332 0.35489,-0.1332 0.11607,0 0.21576,0.035 0.29688,0.1048 0.0805,0.069 0.14811,0.1698 0.2034,0.3026 0.0662,0.154 0.13818,0.2827 0.21472,0.3853 0.0761,0.1014 0.18315,0.1859 0.32181,0.2522 0.13717,0.066 0.31966,0.099 0.54808,0.099 0.31252,0 0.5652,-0.067 0.75847,-0.2009 0.19429,-0.1345 0.28771,-0.2982 0.28771,-0.4962 0,-0.1578 -0.0504,-0.2832 -0.15356,-0.381 -0.10402,-0.099 -0.23861,-0.1742 -0.40546,-0.2269 -0.16753,-0.052 -0.39245,-0.1094 -0.67436,-0.1688 -0.37848,-0.082 -0.69505,-0.1788 -0.95137,-0.2892 -0.25671,-0.1105 -0.46112,-0.2624 -0.61261,-0.4539 -0.15188,-0.1931 -0.22758,-0.4333 -0.22758,-0.7179 0,-0.2713 0.0799,-0.5139 0.23994,-0.7252 0.15992,-0.2117 0.39132,-0.3737 0.69299,-0.4867 0.30063,-0.1127 0.65459,-0.1693 1.06006,-0.1693 0.32425,0 0.60473,0.036 0.84214,0.1117 0.23684,0.075 0.43415,0.1745 0.59191,0.299 0.15692,0.1243 0.27226,0.2553 0.34533,0.3927 0.0729,0.1381 0.10983,0.2728 0.10983,0.4042 0,0.1222 -0.0474,0.233 -0.13969,0.3302 -0.0924,0.098 -0.21041,0.1469 -0.34831,0.1464 -0.12434,0 -0.22185,-0.028 -0.2895,-0.089 -0.0659,-0.059 -0.135,-0.1523 -0.20986,-0.2826 -0.0946,-0.1818 -0.20779,-0.3235 -0.3396,-0.4249 -0.12826,-0.099 -0.33991,-0.1513 -0.63435,-0.1505 -0.27246,0 -0.49046,0.056 -0.65497,0.1646 -0.16554,0.1105 -0.2447,0.2389 -0.24507,0.3893 2.9e-4,0.093 0.0275,0.1736 0.0818,0.2415 0.0554,0.068 0.13238,0.1281 0.2314,0.1781 0.099,0.05 0.19974,0.09 0.30101,0.1185 0.10243,0.03 0.27234,0.072 0.50853,0.1267 0.29624,0.063 0.56502,0.1351 0.80643,0.2128 0.24098,0.078 0.44662,0.1725 0.61657,0.2847 0.17125,0.1117 0.30514,0.2546 0.40069,0.427 0.0962,0.1727 0.14408,0.3836 0.14408,0.6316 3.6e-4,0.2989 -0.0828,0.5676 -0.24872,0.8055 z"
       inkscape:connector-curvature="0"
       style="fill:#000000" />
    <path
       id="path5017"
       d="m 120.67005,1044.6586 q 0,0.2354 0.0735,0.4826 0.0735,0.2473 0.25312,0.4474 0.17954,0.2001 0.42678,0.2001 0.24723,0 0.42677,-0.2001 0.17955,-0.2001 0.25313,-0.4474 0.0735,-0.2472 0.0735,-0.4826 0,-0.2355 -0.0735,-0.4827 -0.0735,-0.2473 -0.25313,-0.4475 -0.17954,-0.2001 -0.42677,-0.2001 -0.24724,0 -0.42678,0.2001 -0.17955,0.2002 -0.25312,0.4475 -0.0735,0.2472 -0.0735,0.4827 z m -3.76743,0 q 0,0.2354 0.0735,0.4826 0.0735,0.2473 0.25312,0.4474 0.17955,0.2001 0.42679,0.2001 0.24724,0 0.42678,-0.2001 0.17954,-0.2001 0.25312,-0.4474 0.0735,-0.2472 0.0735,-0.4826 0,-0.2355 -0.0735,-0.4827 -0.0735,-0.2473 -0.25312,-0.4475 -0.17954,-0.2001 -0.42678,-0.2001 -0.24724,0 -0.42679,0.2001 -0.17953,0.2002 -0.25312,0.4475 -0.0735,0.2472 -0.0735,0.4827 z m -0.94186,0 q 0,-0.7065 0.40617,-1.2009 0.40618,-0.4945 1.10081,-0.4945 0.24135,0 1.14789,0.1235 0.41794,0.064 0.92419,0.064 0.50624,0 0.9242,-0.064 0.89476,-0.1235 1.14789,-0.1235 0.69462,0 1.10079,0.4945 0.40618,0.4944 0.40618,1.2009 0,0.5179 -0.18837,0.9036 -0.18837,0.3855 -0.47682,0.6062 -0.28844,0.2208 -0.71816,0.3533 -0.42973,0.1324 -0.82413,0.1735 -0.3944,0.041 -0.87711,0.041 h -0.98894 q -0.48271,0 -0.87712,-0.041 -0.39439,-0.041 -0.82412,-0.1735 -0.42972,-0.1325 -0.71817,-0.3533 -0.28843,-0.2207 -0.47681,-0.6062 -0.18837,-0.3857 -0.18837,-0.9036 z m -1.3186,-1.0361 q 0,1.2185 0.35909,1.9484 0.22368,0.4534 0.62103,0.783 0.39735,0.3295 0.83001,0.5062 0.43268,0.1766 1.00073,0.2796 0.56805,0.1032 1.00955,0.1295 0.44149,0.027 0.98307,0.027 0.45915,0 0.83589,-0.018 0.37675,-0.018 0.86827,-0.074 0.49155,-0.056 0.89772,-0.1766 0.40617,-0.1201 0.80647,-0.3031 0.40028,-0.1825 0.71227,-0.4768 0.31199,-0.2944 0.50625,-0.677 0.36497,-0.7241 0.36497,-1.9484 0,-1.3952 -0.80058,-2.3312 0.15894,-0.4827 0.15894,-1.0007 0,-0.6829 -0.30022,-1.2833 -0.63575,0 -1.11846,0.2325 -0.48269,0.2325 -1.11256,0.727 -0.86533,-0.206 -1.81896,-0.206 -0.87123,0 -1.64825,0.1884 -0.6181,-0.4827 -1.10081,-0.7123 -0.48269,-0.2296 -1.11257,-0.2296 -0.30021,0.6004 -0.30021,1.2833 0,0.5122 0.15894,0.989 -0.80058,0.9418 -0.80058,2.3429 z"
       inkscape:connector-curvature="0"
       style="fill:#000000" />
    <path
       style="fill:none;stroke:#000000;stroke-width:1;stroke-linecap:butt;stroke-linejoin:miter;stroke-miterlimit:4;stroke-opacity:1;stroke-dasharray:none;marker-start:url(#StopM);marker-mid:none;marker-end:url(#StopM)"
       d="m 40.829724,1043.1938 71.325776,0 0,0"
       id="path2999-54"
       inkscape:connector-curvature="0" />
  </g>
</svg>
